# xmcd
#
# Track frame offsets:
#       150
#       11350
#       22775
#       30097
#       38407
#       47835
#       57757
#       67790
#       75242
#       85652
#       94702
#       106272
#
# Disc length: 1521 seconds
#
# Revision: 1
# Processed by: cddbd v1.5.1PL0 Copyright (c) Steve Scherf et al.
# Submitted via: MusiCat 1.1
#
DISCID=6905ef0c
DTITLE=Billy Vaughn and His Orchestra - La Paloma - Original
DYEAR=1900
DGENRE=
TTITLE0=La Paloma
TTITLE1=Duerme
TTITLE2=Para Vigo Me Voy
TTITLE3=Mexicali Rose
TTITLE4=El Choclo
TTITLE5=La Golondrina
TTITLE6=Aquarela do Brasil
TTITLE7=Estrelita
TTITLE8=La Cumparsita
TTITLE9=Perfidia
TTITLE10=Quierme Mucho
TTITLE11=El Manisero
EXTD=\n\n
EXTT0=
EXTT1=
EXTT2=
EXTT3=
EXTT4=
EXTT5=
EXTT6=
EXTT7=
EXTT8=
EXTT9=
EXTT10=
EXTT11=
PLAYORDER=
